<mxfile host="Electron" modified="2023-05-09T11:01:34.806Z" agent="Mozilla/5.0 (Windows NT 10.0; Win64; x64) AppleWebKit/537.36 (KHTML, like Gecko) draw.io/21.2.8 Chrome/112.0.5615.165 Electron/24.2.0 Safari/537.36" etag="djh_RUcouCEqyjfbALKU" version="21.2.8" type="device">
  <diagram name="Page-1" id="sS6enDFf0WbTZIS2XbAY">
    <mxGraphModel dx="1836" dy="606" grid="1" gridSize="10" guides="1" tooltips="1" connect="1" arrows="1" fold="1" page="0" pageScale="1" pageWidth="850" pageHeight="1100" math="0" shadow="0">
      <root>
        <mxCell id="0" />
        <mxCell id="1" parent="0" />
        <mxCell id="T-9rJRapIrSA8LsScsim-1" value="φαρμακοποιός&amp;nbsp;" style="shape=umlActor;verticalLabelPosition=bottom;verticalAlign=top;html=1;outlineConnect=0;fontSize=16;" parent="1" vertex="1">
          <mxGeometry x="-400" y="146" width="30" height="60" as="geometry" />
        </mxCell>
        <mxCell id="T-9rJRapIrSA8LsScsim-18" value="παραγγελίες που έχουν ολοκληρωθεί&amp;nbsp; ή που ακόμη δεν έχουν σταλεί" style="shape=umlBoundary;whiteSpace=wrap;html=1;fontSize=16;" parent="1" vertex="1">
          <mxGeometry x="-78.25" y="156.25" width="138.5" height="130.5" as="geometry" />
        </mxCell>
        <mxCell id="T-9rJRapIrSA8LsScsim-20" value="επιλογή" style="text;html=1;align=center;verticalAlign=middle;resizable=0;points=[];autosize=1;strokeColor=none;fillColor=none;fontSize=16;" parent="1" vertex="1">
          <mxGeometry x="-230" y="160.5" width="73" height="31" as="geometry" />
        </mxCell>
        <mxCell id="YqsY4oMhckwHTp_olVz_-52" style="edgeStyle=orthogonalEdgeStyle;rounded=0;orthogonalLoop=1;jettySize=auto;html=1;" parent="1" source="T-9rJRapIrSA8LsScsim-21" target="T-9rJRapIrSA8LsScsim-23" edge="1">
          <mxGeometry relative="1" as="geometry" />
        </mxCell>
        <mxCell id="T-9rJRapIrSA8LsScsim-21" value="εμφανισε" style="ellipse;shape=umlControl;whiteSpace=wrap;html=1;fontSize=16;" parent="1" vertex="1">
          <mxGeometry x="110" y="320" width="70" height="80" as="geometry" />
        </mxCell>
        <mxCell id="YqsY4oMhckwHTp_olVz_-57" style="edgeStyle=orthogonalEdgeStyle;rounded=0;orthogonalLoop=1;jettySize=auto;html=1;" parent="1" source="T-9rJRapIrSA8LsScsim-23" target="T-9rJRapIrSA8LsScsim-32" edge="1">
          <mxGeometry relative="1" as="geometry" />
        </mxCell>
        <mxCell id="T-9rJRapIrSA8LsScsim-23" value="παραγγελίες που ακόμα δεν έχουν σταλεί" style="shape=umlBoundary;whiteSpace=wrap;html=1;fontSize=16;" parent="1" vertex="1">
          <mxGeometry x="-78.25" y="418" width="121" height="108" as="geometry" />
        </mxCell>
        <mxCell id="T-9rJRapIrSA8LsScsim-24" value="παραγγελίες" style="ellipse;shape=umlEntity;whiteSpace=wrap;html=1;fontSize=16;" parent="1" vertex="1">
          <mxGeometry x="285.5" y="308" width="99" height="92" as="geometry" />
        </mxCell>
        <mxCell id="YqsY4oMhckwHTp_olVz_-58" style="edgeStyle=orthogonalEdgeStyle;rounded=0;orthogonalLoop=1;jettySize=auto;html=1;entryX=0;entryY=0.5;entryDx=0;entryDy=0;" parent="1" source="T-9rJRapIrSA8LsScsim-32" target="T-9rJRapIrSA8LsScsim-39" edge="1">
          <mxGeometry relative="1" as="geometry" />
        </mxCell>
        <mxCell id="T-9rJRapIrSA8LsScsim-32" value="έλεγχος διαθεσιμότιτας προϊόντων" style="ellipse;shape=umlControl;whiteSpace=wrap;html=1;fontSize=16;" parent="1" vertex="1">
          <mxGeometry x="470" y="405" width="110" height="134" as="geometry" />
        </mxCell>
        <mxCell id="T-9rJRapIrSA8LsScsim-34" value="ενημέρωση πελάτη για απόρριψη" style="ellipse;shape=umlControl;whiteSpace=wrap;html=1;fontSize=16;fillColor=#ffe6cc;strokeColor=#d79b00;" parent="1" vertex="1">
          <mxGeometry x="480" y="250" width="90" height="100" as="geometry" />
        </mxCell>
        <mxCell id="T-9rJRapIrSA8LsScsim-35" value="" style="endArrow=classic;html=1;rounded=0;fontSize=12;startSize=8;endSize=8;curved=1;exitX=0.509;exitY=0.13;exitDx=0;exitDy=0;exitPerimeter=0;entryX=0.474;entryY=0.993;entryDx=0;entryDy=0;entryPerimeter=0;fillColor=#ffe6cc;strokeColor=#d79b00;" parent="1" source="T-9rJRapIrSA8LsScsim-32" target="T-9rJRapIrSA8LsScsim-34" edge="1">
          <mxGeometry width="50" height="50" relative="1" as="geometry">
            <mxPoint x="267" y="605" as="sourcePoint" />
            <mxPoint x="317" y="555" as="targetPoint" />
          </mxGeometry>
        </mxCell>
        <mxCell id="T-9rJRapIrSA8LsScsim-36" value="δεν είναι όλα διαθέσιμα" style="text;html=1;align=center;verticalAlign=middle;resizable=0;points=[];autosize=1;strokeColor=#d79b00;fillColor=#ffe6cc;fontSize=16;" parent="1" vertex="1">
          <mxGeometry x="540" y="359" width="182" height="31" as="geometry" />
        </mxCell>
        <mxCell id="T-9rJRapIrSA8LsScsim-39" value="προϊόντα&lt;br&gt;φαρμακειου" style="ellipse;shape=umlEntity;whiteSpace=wrap;html=1;fontSize=16;" parent="1" vertex="1">
          <mxGeometry x="700" y="428" width="90" height="88" as="geometry" />
        </mxCell>
        <mxCell id="YqsY4oMhckwHTp_olVz_-66" style="edgeStyle=orthogonalEdgeStyle;rounded=0;orthogonalLoop=1;jettySize=auto;html=1;" parent="1" source="T-9rJRapIrSA8LsScsim-41" target="T-9rJRapIrSA8LsScsim-46" edge="1">
          <mxGeometry relative="1" as="geometry" />
        </mxCell>
        <mxCell id="T-9rJRapIrSA8LsScsim-41" value="H&lt;span style=&quot;font-size:12.0pt;line-height:107%;font-family:&amp;quot;Arial&amp;quot;,sans-serif;&lt;br/&gt;mso-fareast-font-family:Calibri;mso-fareast-theme-font:minor-latin;mso-ansi-language:&lt;br/&gt;EL;mso-fareast-language:EN-US;mso-bidi-language:AR-SA&quot;&gt; παραγγελία είναι έτοιμη&lt;br/&gt;για αποδοχή&lt;/span&gt;" style="shape=umlBoundary;whiteSpace=wrap;html=1;fontSize=16;" parent="1" vertex="1">
          <mxGeometry x="-78.25" y="613.5" width="128.25" height="112" as="geometry" />
        </mxCell>
        <mxCell id="T-9rJRapIrSA8LsScsim-43" value="Είναι όλα διαθέσιμα" style="text;html=1;align=center;verticalAlign=middle;resizable=0;points=[];autosize=1;strokeColor=none;fillColor=none;fontSize=16;rotation=-15;" parent="1" vertex="1">
          <mxGeometry x="128.5" y="540" width="160" height="30" as="geometry" />
        </mxCell>
        <mxCell id="T-9rJRapIrSA8LsScsim-45" value="Αποδοχή ή Απόρριψη" style="text;html=1;align=center;verticalAlign=middle;resizable=0;points=[];autosize=1;strokeColor=none;fillColor=none;fontSize=16;rotation=60;" parent="1" vertex="1">
          <mxGeometry x="-283.5" y="432" width="180" height="30" as="geometry" />
        </mxCell>
        <mxCell id="YqsY4oMhckwHTp_olVz_-68" style="edgeStyle=orthogonalEdgeStyle;rounded=0;orthogonalLoop=1;jettySize=auto;html=1;" parent="1" source="T-9rJRapIrSA8LsScsim-46" target="T-9rJRapIrSA8LsScsim-50" edge="1">
          <mxGeometry relative="1" as="geometry" />
        </mxCell>
        <mxCell id="T-9rJRapIrSA8LsScsim-46" value="ενημέρωση&amp;nbsp; πελάτη αποδοχη παραγγελίας&amp;nbsp;" style="ellipse;shape=umlControl;whiteSpace=wrap;html=1;fontSize=16;" parent="1" vertex="1">
          <mxGeometry x="288.5" y="608.25" width="114.5" height="122.5" as="geometry" />
        </mxCell>
        <mxCell id="YqsY4oMhckwHTp_olVz_-70" style="edgeStyle=orthogonalEdgeStyle;rounded=0;orthogonalLoop=1;jettySize=auto;html=1;entryX=0;entryY=0.5;entryDx=0;entryDy=0;" parent="1" source="T-9rJRapIrSA8LsScsim-50" target="T-9rJRapIrSA8LsScsim-51" edge="1">
          <mxGeometry relative="1" as="geometry" />
        </mxCell>
        <mxCell id="T-9rJRapIrSA8LsScsim-50" value="&lt;p class=&quot;MsoNormal&quot;&gt;Τροποποίηση&amp;nbsp; stock&lt;/p&gt;" style="ellipse;shape=umlControl;whiteSpace=wrap;html=1;fontSize=16;" parent="1" vertex="1">
          <mxGeometry x="502" y="608.63" width="120" height="121.75" as="geometry" />
        </mxCell>
        <mxCell id="T-9rJRapIrSA8LsScsim-51" value="προϊόντα φαρμακείου" style="ellipse;shape=umlEntity;whiteSpace=wrap;html=1;fontSize=16;" parent="1" vertex="1">
          <mxGeometry x="720" y="630" width="80" height="80" as="geometry" />
        </mxCell>
        <mxCell id="YqsY4oMhckwHTp_olVz_-75" style="edgeStyle=orthogonalEdgeStyle;rounded=0;orthogonalLoop=1;jettySize=auto;html=1;entryX=0.5;entryY=1;entryDx=0;entryDy=0;" parent="1" source="T-9rJRapIrSA8LsScsim-53" target="T-9rJRapIrSA8LsScsim-56" edge="1">
          <mxGeometry relative="1" as="geometry" />
        </mxCell>
        <mxCell id="T-9rJRapIrSA8LsScsim-53" value="μετάβαση παραγγελίας σε λίστα finished" style="ellipse;shape=umlControl;whiteSpace=wrap;html=1;fontSize=16;" parent="1" vertex="1">
          <mxGeometry x="550" y="880" width="120" height="115.75" as="geometry" />
        </mxCell>
        <mxCell id="T-9rJRapIrSA8LsScsim-56" value="παραγγελίες" style="ellipse;shape=umlEntity;whiteSpace=wrap;html=1;fontSize=16;" parent="1" vertex="1">
          <mxGeometry x="740" y="820" width="85" height="90" as="geometry" />
        </mxCell>
        <mxCell id="T-9rJRapIrSA8LsScsim-58" value="εμφάνισε" style="ellipse;shape=umlControl;whiteSpace=wrap;html=1;fontSize=16;fillColor=#f8cecc;strokeColor=#b85450;" parent="1" vertex="1">
          <mxGeometry x="300" y="170" width="70" height="80" as="geometry" />
        </mxCell>
        <mxCell id="T-9rJRapIrSA8LsScsim-59" value="" style="endArrow=classic;html=1;rounded=0;fontSize=12;startSize=8;endSize=8;curved=1;exitX=0.994;exitY=0.47;exitDx=0;exitDy=0;exitPerimeter=0;entryX=0.006;entryY=0.605;entryDx=0;entryDy=0;entryPerimeter=0;fillColor=#f8cecc;strokeColor=#b85450;" parent="1" source="T-9rJRapIrSA8LsScsim-18" target="T-9rJRapIrSA8LsScsim-58" edge="1">
          <mxGeometry width="50" height="50" relative="1" as="geometry">
            <mxPoint x="347" y="398" as="sourcePoint" />
            <mxPoint x="397" y="348" as="targetPoint" />
          </mxGeometry>
        </mxCell>
        <mxCell id="T-9rJRapIrSA8LsScsim-60" value="Παραγγελίες που&amp;nbsp;&lt;br&gt;έχουν ολοκληρωθεί" style="text;html=1;align=center;verticalAlign=middle;resizable=0;points=[];autosize=1;strokeColor=#b85450;fillColor=#f8cecc;fontSize=16;" parent="1" vertex="1">
          <mxGeometry x="76" y="151" width="160" height="50" as="geometry" />
        </mxCell>
        <mxCell id="f6oSSaDbNlxuDpAMLlSm-2" value="Πραγγελίες που έχουν ολοκληρωθή" style="shape=umlBoundary;whiteSpace=wrap;html=1;fillColor=#f8cecc;strokeColor=#b85450;fontSize=15;" parent="1" vertex="1">
          <mxGeometry x="502" y="165" width="113" height="90" as="geometry" />
        </mxCell>
        <mxCell id="f6oSSaDbNlxuDpAMLlSm-3" value="" style="endArrow=classic;html=1;rounded=0;exitX=1.029;exitY=0.55;exitDx=0;exitDy=0;exitPerimeter=0;entryX=-0.01;entryY=0.55;entryDx=0;entryDy=0;entryPerimeter=0;fillColor=#f8cecc;strokeColor=#b85450;" parent="1" source="T-9rJRapIrSA8LsScsim-58" target="f6oSSaDbNlxuDpAMLlSm-2" edge="1">
          <mxGeometry width="50" height="50" relative="1" as="geometry">
            <mxPoint x="398" y="426" as="sourcePoint" />
            <mxPoint x="448" y="376" as="targetPoint" />
          </mxGeometry>
        </mxCell>
        <mxCell id="YqsY4oMhckwHTp_olVz_-74" style="edgeStyle=orthogonalEdgeStyle;rounded=0;orthogonalLoop=1;jettySize=auto;html=1;fillColor=#d5e8d4;strokeColor=#82b366;" parent="1" source="f6oSSaDbNlxuDpAMLlSm-7" target="T-9rJRapIrSA8LsScsim-53" edge="1">
          <mxGeometry relative="1" as="geometry" />
        </mxCell>
        <mxCell id="f6oSSaDbNlxuDpAMLlSm-7" value="&lt;font style=&quot;font-size: 14px;&quot;&gt;Μετάβαση των συγκεκριμένων&amp;nbsp; προϊόντων στη λίστα out-of-stock&lt;/font&gt;" style="ellipse;shape=umlControl;whiteSpace=wrap;html=1;fillColor=#d5e8d4;strokeColor=#82b366;" parent="1" vertex="1">
          <mxGeometry x="269.25" y="870.13" width="131.5" height="135.5" as="geometry" />
        </mxCell>
        <mxCell id="YqsY4oMhckwHTp_olVz_-46" value="" style="endArrow=classic;html=1;rounded=0;entryX=-0.01;entryY=0.481;entryDx=0;entryDy=0;entryPerimeter=0;" parent="1" source="T-9rJRapIrSA8LsScsim-1" target="T-9rJRapIrSA8LsScsim-18" edge="1">
          <mxGeometry width="50" height="50" relative="1" as="geometry">
            <mxPoint x="460" y="430" as="sourcePoint" />
            <mxPoint x="510" y="380" as="targetPoint" />
            <Array as="points">
              <mxPoint x="-200" y="200" />
            </Array>
          </mxGeometry>
        </mxCell>
        <mxCell id="YqsY4oMhckwHTp_olVz_-49" value="" style="endArrow=classic;html=1;rounded=0;exitX=0.902;exitY=0.895;exitDx=0;exitDy=0;exitPerimeter=0;" parent="1" source="T-9rJRapIrSA8LsScsim-18" target="T-9rJRapIrSA8LsScsim-21" edge="1">
          <mxGeometry width="50" height="50" relative="1" as="geometry">
            <mxPoint x="320" y="530" as="sourcePoint" />
            <mxPoint x="370" y="480" as="targetPoint" />
            <Array as="points">
              <mxPoint x="70" y="290" />
            </Array>
          </mxGeometry>
        </mxCell>
        <mxCell id="YqsY4oMhckwHTp_olVz_-51" value="Παραγγελίες που&amp;nbsp;&lt;br&gt;ακόμη δεν έχουν&lt;br&gt;σταλεί" style="text;html=1;align=center;verticalAlign=middle;resizable=0;points=[];autosize=1;fontSize=16;" parent="1" vertex="1">
          <mxGeometry x="60.25" y="250" width="150" height="70" as="geometry" />
        </mxCell>
        <mxCell id="YqsY4oMhckwHTp_olVz_-53" value="" style="endArrow=classic;html=1;rounded=0;entryX=-0.008;entryY=0.531;entryDx=0;entryDy=0;entryPerimeter=0;" parent="1" source="T-9rJRapIrSA8LsScsim-1" target="T-9rJRapIrSA8LsScsim-23" edge="1">
          <mxGeometry width="50" height="50" relative="1" as="geometry">
            <mxPoint x="320" y="520" as="sourcePoint" />
            <mxPoint x="-130" y="480" as="targetPoint" />
          </mxGeometry>
        </mxCell>
        <mxCell id="YqsY4oMhckwHTp_olVz_-55" value="επιλογή Παραγγελίας" style="text;html=1;align=center;verticalAlign=middle;resizable=0;points=[];autosize=1;strokeColor=none;fillColor=none;fontSize=16;rotation=45;" parent="1" vertex="1">
          <mxGeometry x="-308" y="270.5" width="170" height="30" as="geometry" />
        </mxCell>
        <mxCell id="YqsY4oMhckwHTp_olVz_-59" value="" style="endArrow=classic;html=1;rounded=0;entryX=-0.008;entryY=0.431;entryDx=0;entryDy=0;entryPerimeter=0;exitX=1;exitY=1;exitDx=0;exitDy=0;exitPerimeter=0;" parent="1" source="T-9rJRapIrSA8LsScsim-1" target="T-9rJRapIrSA8LsScsim-41" edge="1">
          <mxGeometry width="50" height="50" relative="1" as="geometry">
            <mxPoint x="320" y="520" as="sourcePoint" />
            <mxPoint x="370" y="470" as="targetPoint" />
          </mxGeometry>
        </mxCell>
        <mxCell id="YqsY4oMhckwHTp_olVz_-61" value="" style="endArrow=classic;html=1;rounded=0;entryX=0.946;entryY=0.269;entryDx=0;entryDy=0;entryPerimeter=0;exitX=-0.02;exitY=0.718;exitDx=0;exitDy=0;exitPerimeter=0;" parent="1" source="T-9rJRapIrSA8LsScsim-32" target="T-9rJRapIrSA8LsScsim-41" edge="1">
          <mxGeometry width="50" height="50" relative="1" as="geometry">
            <mxPoint x="320" y="540" as="sourcePoint" />
            <mxPoint x="370" y="490" as="targetPoint" />
          </mxGeometry>
        </mxCell>
        <mxCell id="YqsY4oMhckwHTp_olVz_-67" value="&lt;font style=&quot;font-size: 15px;&quot;&gt;Αποδοχή&lt;/font&gt;" style="text;html=1;strokeColor=none;fillColor=none;align=center;verticalAlign=middle;whiteSpace=wrap;rounded=0;" parent="1" vertex="1">
          <mxGeometry x="140" y="630" width="60" height="30" as="geometry" />
        </mxCell>
        <mxCell id="YqsY4oMhckwHTp_olVz_-71" value="" style="endArrow=none;html=1;rounded=0;fillColor=#dae8fc;strokeColor=#6c8ebf;" parent="1" target="T-9rJRapIrSA8LsScsim-41" edge="1">
          <mxGeometry width="50" height="50" relative="1" as="geometry">
            <mxPoint x="-10" y="1020" as="sourcePoint" />
            <mxPoint x="370" y="490" as="targetPoint" />
          </mxGeometry>
        </mxCell>
        <mxCell id="YqsY4oMhckwHTp_olVz_-73" value="" style="endArrow=classic;html=1;rounded=0;fillColor=#d5e8d4;strokeColor=#82b366;" parent="1" source="T-9rJRapIrSA8LsScsim-50" target="f6oSSaDbNlxuDpAMLlSm-7" edge="1">
          <mxGeometry width="50" height="50" relative="1" as="geometry">
            <mxPoint x="320" y="530" as="sourcePoint" />
            <mxPoint x="370" y="480" as="targetPoint" />
          </mxGeometry>
        </mxCell>
        <mxCell id="YqsY4oMhckwHTp_olVz_-76" value="" style="endArrow=none;html=1;rounded=0;fillColor=#dae8fc;strokeColor=#6c8ebf;" parent="1" edge="1">
          <mxGeometry width="50" height="50" relative="1" as="geometry">
            <mxPoint x="-10" y="1020" as="sourcePoint" />
            <mxPoint x="840" y="1020" as="targetPoint" />
          </mxGeometry>
        </mxCell>
        <mxCell id="YqsY4oMhckwHTp_olVz_-77" value="" style="endArrow=none;html=1;rounded=0;fillColor=#dae8fc;strokeColor=#6c8ebf;" parent="1" edge="1">
          <mxGeometry width="50" height="50" relative="1" as="geometry">
            <mxPoint x="840" y="1020" as="sourcePoint" />
            <mxPoint x="840" y="300" as="targetPoint" />
          </mxGeometry>
        </mxCell>
        <mxCell id="YqsY4oMhckwHTp_olVz_-78" value="" style="endArrow=classic;html=1;rounded=0;entryX=1.054;entryY=0.489;entryDx=0;entryDy=0;entryPerimeter=0;fillColor=#dae8fc;strokeColor=#6c8ebf;" parent="1" target="T-9rJRapIrSA8LsScsim-34" edge="1">
          <mxGeometry width="50" height="50" relative="1" as="geometry">
            <mxPoint x="840" y="300" as="sourcePoint" />
            <mxPoint x="370" y="480" as="targetPoint" />
          </mxGeometry>
        </mxCell>
        <mxCell id="YqsY4oMhckwHTp_olVz_-79" value="&lt;font style=&quot;font-size: 15px;&quot;&gt;Aπόρριψη&lt;br&gt;&lt;br&gt;&lt;/font&gt;" style="text;html=1;strokeColor=none;fillColor=none;align=center;verticalAlign=middle;whiteSpace=wrap;rounded=0;" parent="1" vertex="1">
          <mxGeometry x="0.25" y="774.38" width="60" height="30" as="geometry" />
        </mxCell>
        <mxCell id="rBrqlfLg7SxFIshLeJAF-5" value="" style="endArrow=classic;html=1;rounded=0;entryX=0;entryY=0.5;entryDx=0;entryDy=0;exitX=0.983;exitY=0.433;exitDx=0;exitDy=0;exitPerimeter=0;" parent="1" source="T-9rJRapIrSA8LsScsim-21" target="T-9rJRapIrSA8LsScsim-24" edge="1">
          <mxGeometry width="50" height="50" relative="1" as="geometry">
            <mxPoint x="70" y="460" as="sourcePoint" />
            <mxPoint x="120" y="410" as="targetPoint" />
          </mxGeometry>
        </mxCell>
        <mxCell id="D0aZfy-KOPcvonktBkWW-1" value="" style="endArrow=classic;html=1;rounded=0;entryX=0.447;entryY=0.126;entryDx=0;entryDy=0;entryPerimeter=0;exitX=0.627;exitY=1.028;exitDx=0;exitDy=0;exitPerimeter=0;" parent="1" source="T-9rJRapIrSA8LsScsim-50" target="T-9rJRapIrSA8LsScsim-53" edge="1">
          <mxGeometry width="50" height="50" relative="1" as="geometry">
            <mxPoint x="310" y="930" as="sourcePoint" />
            <mxPoint x="360" y="880" as="targetPoint" />
          </mxGeometry>
        </mxCell>
        <mxCell id="D0aZfy-KOPcvonktBkWW-2" value="κάποιο προϊόν δεν είναι πλέον&lt;br&gt;διαθέσιμο" style="text;html=1;align=center;verticalAlign=middle;resizable=0;points=[];autosize=1;strokeColor=none;fillColor=none;rotation=-45;" parent="1" vertex="1">
          <mxGeometry x="340" y="764.38" width="180" height="40" as="geometry" />
        </mxCell>
        <mxCell id="D0aZfy-KOPcvonktBkWW-3" value="ολα τα προϊόντα&amp;nbsp;&lt;br&gt;παραμένουν διαθέσιμα" style="text;html=1;align=center;verticalAlign=middle;resizable=0;points=[];autosize=1;strokeColor=none;fillColor=none;" parent="1" vertex="1">
          <mxGeometry x="572" y="750" width="150" height="40" as="geometry" />
        </mxCell>
        <mxCell id="D0aZfy-KOPcvonktBkWW-4" value="προϊόντα φαρμακείου" style="ellipse;shape=umlEntity;whiteSpace=wrap;html=1;fillColor=#d5e8d4;strokeColor=#82b366;" parent="1" vertex="1">
          <mxGeometry x="90" y="897.88" width="80" height="80" as="geometry" />
        </mxCell>
        <mxCell id="D0aZfy-KOPcvonktBkWW-5" value="" style="endArrow=classic;html=1;rounded=0;exitX=-0.006;exitY=0.511;exitDx=0;exitDy=0;exitPerimeter=0;entryX=1;entryY=0.5;entryDx=0;entryDy=0;fillColor=#d5e8d4;strokeColor=#82b366;" parent="1" source="f6oSSaDbNlxuDpAMLlSm-7" target="D0aZfy-KOPcvonktBkWW-4" edge="1">
          <mxGeometry width="50" height="50" relative="1" as="geometry">
            <mxPoint x="310" y="820" as="sourcePoint" />
            <mxPoint x="360" y="770" as="targetPoint" />
          </mxGeometry>
        </mxCell>
        <mxCell id="Yru2QoT4tN3vTOcHEf7W-1" value="Παραγγελίες&amp;nbsp;" style="ellipse;shape=umlEntity;whiteSpace=wrap;html=1;fillColor=#f8cecc;strokeColor=#b85450;" parent="1" vertex="1">
          <mxGeometry x="295" y="40" width="80" height="80" as="geometry" />
        </mxCell>
        <mxCell id="Yru2QoT4tN3vTOcHEf7W-2" value="" style="endArrow=classic;html=1;rounded=0;entryX=0.5;entryY=1;entryDx=0;entryDy=0;fillColor=#f8cecc;strokeColor=#b85450;" parent="1" source="T-9rJRapIrSA8LsScsim-58" target="Yru2QoT4tN3vTOcHEf7W-1" edge="1">
          <mxGeometry width="50" height="50" relative="1" as="geometry">
            <mxPoint x="280" y="370" as="sourcePoint" />
            <mxPoint x="330" y="320" as="targetPoint" />
          </mxGeometry>
        </mxCell>
      </root>
    </mxGraphModel>
  </diagram>
</mxfile>
